<?xml version="1.0" standalone="no"?>
<!DOCTYPE svg PUBLIC "-//W3C//DTD SVG 20010904//EN"
 "http://www.w3.org/TR/2001/REC-SVG-20010904/DTD/svg10.dtd">
<svg version="1.0" xmlns="http://www.w3.org/2000/svg"
 width="1000.000000pt" height="1000.000000pt" viewBox="0 0 1000.000000 1000.000000"
 preserveAspectRatio="xMidYMid meet">

<g transform="translate(0.000000,1000.000000) scale(0.100000,-0.100000)"
fill="#000000" stroke="none">
<path d="M6179 8895 l-404 -365 -455 6 c-446 6 -1260 -7 -1695 -26 -1049 -48
-1727 -137 -1821 -241 -16 -18 -16 -20 0 -38 137 -152 1562 -270 3263 -271
202 0 304 -4 308 -11 4 -5 -36 -81 -87 -167 -52 -86 -195 -323 -318 -527 -231
-384 -744 -1210 -765 -1233 -9 -10 -19 6 -50 80 -198 488 -508 769 -942 855
-120 23 -369 23 -523 0 -255 -39 -470 -107 -705 -222 -553 -271 -1101 -828
-1380 -1400 -165 -340 -233 -634 -222 -965 8 -232 45 -380 143 -570 160 -311
489 -556 870 -650 285 -70 672 -70 993 0 262 58 595 197 801 335 202 136 484
369 668 550 l112 112 10 -41 c27 -105 95 -300 134 -382 117 -244 286 -423 497
-524 202 -96 482 -122 704 -65 204 53 417 190 550 354 l20 24 -95 -7 c-358
-26 -553 13 -720 143 -134 104 -220 264 -349 656 -123 372 -203 636 -196 653
3 8 56 93 119 191 157 243 402 629 466 731 29 47 67 108 85 135 129 199 485
761 512 810 19 33 188 308 375 612 l340 552 42 5 c22 3 138 10 256 16 461 24
897 69 1152 120 162 33 246 60 286 95 26 22 26 24 9 43 -77 85 -535 160 -1292
213 -93 7 -171 13 -173 14 -1 1 65 116 148 254 82 139 150 256 150 261 0 9
-394 250 -409 250 -4 0 -190 -164 -412 -365z m-3269 -2345 c222 -42 398 -254
531 -638 73 -214 164 -572 185 -728 l6 -51 -117 -174 c-409 -605 -781 -998
-1169 -1233 -195 -118 -345 -167 -521 -169 -130 -1 -204 16 -291 66 -158 93
-261 270 -295 506 -17 118 -6 375 21 521 67 351 234 733 494 1130 292 443 599
706 895 765 81 16 191 18 261 5z"/>
</g>
</svg>
