<svg id="Слой_1" version="1.1" viewBox="0 0 128 128" xml:space="preserve" xmlns="http://www.w3.org/2000/svg"><path d="M65.3 69.3c-13.8 0-25-11.2-25-25v-40h50v40c-.1 13.8-11.2 25-25 25z" fill="#FFF"/><path d="M74 67.7l-.8.9c-5.2 6-4.9 15.1.8 20.7H54c5.7-5.7 6.2-14.8 1.2-21.1L54 66.7" fill="#FFF"/><path fill="#E5E6E6" d="M39 121.3v-32h50v32"/><path d="M50.2 25.8c.8 0 1.5-.7 1.5-1.5v-10c0-.8-.7-1.5-1.5-1.5s-1.5.7-1.5 1.5v10c.1.9.7 1.5 1.5 1.5zm16.6 33.5c0-.8-.7-1.5-1.5-1.5-7.4 0-13.5-6.1-13.5-13.5v-10c0-.8-.7-1.5-1.5-1.5s-1.5.7-1.5 1.5v10c0 9.1 7.4 16.5 16.5 16.5.8 0 1.5-.6 1.5-1.5z" fill="#4A374F"/><path d="M39 87.8c-.8 0-1.5.7-1.5 1.5v30.4H29c-.8 0-1.5.7-1.5 1.5s.7 1.5 1.5 1.5h70c.8 0 1.5-.7 1.5-1.5s-.7-1.5-1.5-1.5h-8.5V89.3c0-.8-.7-1.5-1.5-1.5H74.7c-4.7-5.1-4.8-13-.3-18.2l.5-.6c9.4-3.7 16.2-12.6 16.8-23.2H93c5 0 9.3-3.2 10.9-7.9l5.5-16.6c.7-2 .3-4.1-.9-5.9-1.2-1.7-3.2-2.7-5.3-2.7H91.8V4.3c0-.8-.7-1.5-1.5-1.5h-50c-.8 0-1.5.7-1.5 1.5v8.5H27.2c-2.1 0-4 1-5.3 2.7-1.2 1.7-1.6 3.9-.9 5.9L26.5 38c1.6 4.7 6 7.9 10.9 7.9h1.3c.5 9.6 6.2 17.8 14.2 22l1.1 1.3c4.4 5.6 4.1 13.5-.7 18.7H39zm48.5 32h-47v-29h47v29zm15.8-104c1.1 0 2.2.5 2.8 1.5s.8 2.1.5 3.2L101.1 37c-1.2 3.5-4.4 5.8-8.1 5.8h-1.3v-27h11.6zM29.4 37l-5.5-16.6c-.4-1.1-.2-2.2.5-3.2s1.7-1.5 2.8-1.5h11.6v27h-1.3c-3.7.1-6.9-2.2-8.1-5.7zm12.4 7.3V5.8h47v38.5c0 13-10.5 23.5-23.5 23.5S41.8 57.3 41.8 44.3zm16.3 25.5c2.3.6 4.7 1 7.2 1 1.7 0 3.4-.2 5-.5-3.1 5.5-2.8 12.3.6 17.5H57.2c3.6-5.3 3.9-12.3.9-18z" fill="#4A374F"/></svg>